<svg xmlns="http://www.w3.org/2000/svg" viewBox="0 0 512 512" fill="#EEE">
  <path d="M131.5 170.7c10.8 8.4 26 7.6 35.8-1.9l.4-.4c10-9.7 11.1-25.3 2.5-36.3-31.1-40-75.1-77.6-95.7-57.1-20.5 20.5 17 64.5 57 95.7zM344.1 167.8c9.8 9.9 25.4 11 36.3 2.4 39.7-31.1 76.6-74.7 56.2-95.1-20.5-20.5-64.2 16.7-95.3 56.4-8.5 10.9-7.4 26.3 2.4 36 .2.1.3.2.4.3zM404.6 228.5c-13.8 1.7-24.1 13.4-24.1 27.3v1c-.2 13.4 9.5 25 22.8 26.6 50.3 6.3 108.2 1.8 108.2-27.3 0-28.8-56.9-33.6-106.9-27.6zM255.6 0C226.7 0 222 57 228 107c1.7 13.8 13.3 24 27.2 24h.5c13.9 0 25.6-10.2 27.2-24 6.2-50 1.6-107-27.3-107zM107.4 228.5c13.8 1.7 24.1 13.4 24.1 27.3v1c.2 13.4-9.5 25-22.8 26.6C58.4 289.7.5 285.2.5 256.1c0-28.8 56.9-33.6 106.9-27.6zM131.5 341.3c10.8-8.4 26-7.6 35.8 1.9l.4.4c10 9.7 11.1 25.3 2.5 36.3-31.1 40-75.1 77.6-95.7 57.1-20.5-20.5 17-64.5 57-95.7zM344.1 344.2c9.8-9.9 25.4-11 36.3-2.4 39.7 31.1 76.6 74.7 56.2 95.1-20.5 20.5-64.2-16.7-95.3-56.4-8.5-10.9-7.4-26.3 2.4-36 .2-.1.3-.2.4-.3zM255.6 512c-28.8 0-33.6-56.6-27.7-106.6 1.7-13.9 13.4-24.4 27.5-24.4h.4c13.9 0 25.6 10.2 27.2 24 6.1 50 1.5 107-27.4 107z"/>
</svg>